<?xml version="1.0" encoding="UTF-8" ?>
<svg width="207pt" height="207pt" viewBox="0 -5 150 205" version="1.2" xmlns="http://www.w3.org/2000/svg" zoomAndPan="disable" baseProfile="tiny-ps">
    <title>The Gas Shop Logo</title>
    <path fill="#136fb8" d=" M 74.40 32.31 C 93.93 21.66 113.86 11.77 133.54 1.42 C 123.93 9.85 119.22 23.07 120.31 35.70 C 121.22 43.98 124.69 51.63 127.35 59.43 C 132.74 72.40 137.63 85.85 138.50 99.99 C 138.88 108.63 137.22 117.50 133.17 125.18 C 126.36 136.94 116.70 146.69 106.80 155.84 C 96.00 165.35 84.86 174.53 73.01 182.69 C 74.55 180.82 76.13 178.98 77.82 177.24 C 84.84 170.74 91.00 163.39 97.13 156.06 C 104.03 147.34 111.00 138.29 114.74 127.69 C 118.01 115.39 114.08 102.71 109.79 91.18 C 107.14 83.15 103.73 75.37 101.85 67.11 C 99.44 54.99 102.45 42.30 108.74 31.80 C 97.77 38.71 87.10 46.08 76.45 53.44 C 65.66 61.12 54.37 68.57 46.06 79.06 C 39.78 87.44 35.46 97.46 34.56 107.95 C 32.59 121.17 34.21 134.88 38.77 147.42 C 42.73 160.31 47.94 172.80 54.41 184.64 C 47.93 177.52 43.22 169.05 38.16 160.93 C 28.97 144.84 20.98 127.61 18.32 109.12 C 15.94 94.10 20.82 78.68 29.52 66.46 C 31.55 63.83 33.76 61.33 35.44 58.45 C 35.54 58.31 35.72 58.01 35.82 57.87 C 46.74 46.69 60.69 39.42 74.40 32.31 Z" />
    <path fill="#7796ce" d=" M 76.45 53.44 C 87.10 46.08 97.77 38.71 108.74 31.80 C 102.45 42.30 99.44 54.99 101.85 67.11 C 103.73 75.37 107.14 83.15 109.79 91.18 C 114.08 102.71 118.01 115.39 114.74 127.69 C 111.00 138.29 104.03 147.34 97.13 156.06 C 91.00 163.39 84.84 170.74 77.82 177.24 C 82.40 168.15 89.28 160.24 92.27 150.36 C 95.47 141.27 92.89 131.54 90.44 122.61 C 88.29 114.28 84.37 106.46 82.86 97.97 C 81.73 90.73 85.49 84.13 88.14 77.68 C 80.01 82.92 72.52 89.09 64.48 94.47 C 57.88 99.06 51.08 103.66 46.12 110.08 C 41.94 115.63 39.31 122.29 38.22 129.13 C 37.22 135.21 38.52 141.33 38.77 147.42 C 34.21 134.88 32.59 121.17 34.56 107.95 C 35.46 97.46 39.78 87.44 46.06 79.06 C 54.37 68.57 65.66 61.12 76.45 53.44 Z" />
    <path fill="#97aeda" d=" M 31.94 60.96 C 32.92 59.89 34.16 59.10 35.44 58.45 C 33.76 61.33 31.55 63.83 29.52 66.46 C 20.82 78.68 15.94 94.10 18.32 109.12 C 20.98 127.61 28.97 144.84 38.16 160.93 C 43.22 169.05 47.93 177.52 54.41 184.64 C 47.94 172.80 42.73 160.31 38.77 147.42 C 38.52 141.33 37.22 135.21 38.22 129.13 C 39.31 122.29 41.94 115.63 46.12 110.08 C 51.08 103.66 57.88 99.06 64.48 94.47 C 72.52 89.09 80.01 82.92 88.14 77.68 C 85.49 84.13 81.73 90.73 82.86 97.97 C 84.37 106.46 88.29 114.28 90.44 122.61 C 92.89 131.54 95.47 141.27 92.27 150.36 C 89.28 160.24 82.40 168.15 77.82 177.24 C 76.13 178.98 74.55 180.82 73.01 182.69 C 66.62 187.49 60.02 192.08 53.17 196.22 C 43.45 184.02 35.28 170.65 28.21 156.77 C 20.01 139.69 13.34 121.17 14.07 101.96 C 14.29 86.59 21.30 71.86 31.94 60.96 Z" />
    <path stroke="#ffffff" fill="none" d=" M 74.40 32.31 C 93.93 21.66 113.86 11.77 133.54 1.42 C 123.93 9.85 119.22 23.07 120.31 35.70 C 121.22 43.98 124.69 51.63 127.35 59.43 C 132.74 72.40 137.63 85.85 138.50 99.99 C 138.88 108.63 137.22 117.50 133.17 125.18 C 126.36 136.94 116.70 146.69 106.80 155.84 C 96.00 165.35 84.86 174.53 73.01 182.69  C 66.62 187.49 60.02 192.08 53.17 196.22 C 43.45 184.02 35.28 170.65 28.21 156.77 C 20.01 139.69 13.34 121.17 14.07 101.96 C 14.29 86.59 21.30 71.86 31.94 60.96   C 35.54 58.31 35.72 58.01 35.82 57.87 C 46.74 46.69 60.69 39.42 74.40 32.31 Z" />
</svg>
